<svg width="285" height="48" viewBox="0 0 285 48" fill="none" xmlns="http://www.w3.org/2000/svg">
<path d="M37.02 4.51999C36.74 8.31999 36.6 11.72 36.6 14.72C36.6 16.6 36.66 18.12 36.78 19.28H35.4C34.44 14.36 33.12 10.9 31.44 8.89999C29.8 6.89999 27.54 5.89999 24.66 5.89999H23.28V40.16C23.28 41.84 23.44 43.06 23.76 43.82C24.12 44.58 24.72 45.1 25.56 45.38C26.44 45.62 27.82 45.76 29.7 45.8V47C24.66 46.88 20.86 46.82 18.3 46.82C15.78 46.82 12.12 46.88 7.32 47V45.8C9.2 45.76 10.56 45.62 11.4 45.38C12.28 45.1 12.88 44.58 13.2 43.82C13.56 43.06 13.74 41.84 13.74 40.16V5.89999H12.42C10.5 5.89999 8.86 6.31999 7.5 7.15999C6.18 7.99999 5.04 9.39999 4.08 11.36C3.12 13.28 2.3 15.92 1.62 19.28H0.24C0.36 18.12 0.42 16.6 0.42 14.72C0.42 11.72 0.28 8.31999 0 4.51999C3.64 4.63999 9.82 4.69999 18.54 4.69999C27.26 4.69999 33.42 4.63999 37.02 4.51999Z" fill="#62B93E"/>
<path d="M46.3561 47.42C43.7961 47.42 41.8761 46.76 40.5961 45.44C39.3561 44.12 38.7361 42.38 38.7361 40.22C38.7361 38.42 39.1961 36.94 40.1161 35.78C41.0761 34.58 42.2161 33.66 43.5361 33.02C44.8961 32.38 46.6161 31.7 48.6961 30.98C50.8961 30.22 52.4961 29.54 53.4961 28.94C54.5361 28.3 55.0561 27.44 55.0561 26.36V21.68C55.0561 20 54.6561 18.7 53.8561 17.78C53.0961 16.82 51.8961 16.34 50.2561 16.34C48.3361 16.34 46.8761 16.82 45.8761 17.78C46.9961 18.18 47.8561 18.78 48.4561 19.58C49.0961 20.38 49.4161 21.32 49.4161 22.4C49.4161 23.76 48.9561 24.84 48.0361 25.64C47.1161 26.44 45.9961 26.84 44.6761 26.84C43.2761 26.84 42.1961 26.4 41.4361 25.52C40.6761 24.64 40.2961 23.54 40.2961 22.22C40.2961 21.1 40.5561 20.16 41.0761 19.4C41.6361 18.6 42.4761 17.86 43.5961 17.18C44.6761 16.54 45.9961 16.04 47.5561 15.68C49.1561 15.32 50.8961 15.14 52.7761 15.14C54.7361 15.14 56.4361 15.34 57.8761 15.74C59.3161 16.14 60.5161 16.82 61.4761 17.78C62.3561 18.66 62.9361 19.74 63.2161 21.02C63.5361 22.3 63.6961 24.04 63.6961 26.24V42.56C63.6961 43.52 63.7761 44.2 63.9361 44.6C64.1361 45 64.4961 45.2 65.0161 45.2C65.6161 45.2 66.3361 44.86 67.1761 44.18L67.7761 45.2C65.9761 46.68 63.7761 47.42 61.1761 47.42C58.9761 47.42 57.4361 46.98 56.5561 46.1C55.6761 45.22 55.2161 44.04 55.1761 42.56C53.1761 45.8 50.2361 47.42 46.3561 47.42ZM50.9761 43.58C52.5361 43.58 53.8961 42.76 55.0561 41.12V28.82C54.5761 29.62 53.5561 30.5 51.9961 31.46C50.4361 32.46 49.2561 33.46 48.4561 34.46C47.6561 35.46 47.2561 36.9 47.2561 38.78C47.2561 40.42 47.5961 41.64 48.2761 42.44C48.9561 43.2 49.8561 43.58 50.9761 43.58Z" fill="#62B93E"/>
<path d="M81.3708 15.14C82.8908 15.14 84.2908 15.34 85.5708 15.74C86.8508 16.1 87.8308 16.52 88.5108 17C88.9108 17.28 89.2708 17.42 89.5908 17.42C89.9508 17.42 90.2508 17.24 90.4908 16.88C90.7708 16.48 90.9508 15.92 91.0308 15.2H92.2908C92.1308 17.24 92.0508 20.76 92.0508 25.76H90.7908C90.4308 23.12 89.6308 20.92 88.3908 19.16C87.1908 17.36 85.4308 16.46 83.1108 16.46C81.9108 16.46 80.9108 16.8 80.1108 17.48C79.3508 18.16 78.9708 19.1 78.9708 20.3C78.9708 21.66 79.4308 22.84 80.3508 23.84C81.2708 24.8 82.7108 25.98 84.6708 27.38L86.4108 28.64C88.8508 30.48 90.6508 32.12 91.8108 33.56C92.9708 35 93.5508 36.8 93.5508 38.96C93.5508 40.72 93.0308 42.28 91.9908 43.64C90.9908 45 89.6308 46.04 87.9108 46.76C86.1908 47.48 84.2908 47.84 82.2108 47.84C80.0108 47.84 78.1308 47.42 76.5708 46.58C75.2908 45.94 74.3708 45.52 73.8108 45.32C73.4108 45.2 73.0508 45.34 72.7308 45.74C72.4508 46.1 72.2308 46.66 72.0708 47.42H70.8108C70.9708 45.14 71.0508 41.14 71.0508 35.42H72.3108C73.1108 42.78 75.8108 46.46 80.4108 46.46C81.5708 46.46 82.5508 46.12 83.3508 45.44C84.1908 44.72 84.6108 43.64 84.6108 42.2C84.6108 41.08 84.3508 40.08 83.8308 39.2C83.3508 38.32 82.7308 37.54 81.9708 36.86C81.2108 36.18 80.0708 35.24 78.5508 34.04C76.7508 32.6 75.3708 31.44 74.4108 30.56C73.4908 29.68 72.6908 28.64 72.0108 27.44C71.3708 26.24 71.0508 24.9 71.0508 23.42C71.0508 20.86 72.0508 18.84 74.0508 17.36C76.0508 15.88 78.4908 15.14 81.3708 15.14Z" fill="#62B93E"/>
<path d="M109.386 15.98H116.466V17.18H109.386V41.42C109.386 42.62 109.586 43.48 109.986 44C110.426 44.48 111.106 44.72 112.026 44.72C113.746 44.72 115.106 43.52 116.106 41.12L117.126 41.66C115.606 45.78 112.866 47.84 108.906 47.84C106.266 47.84 104.266 47.16 102.906 45.8C102.066 44.96 101.486 43.92 101.166 42.68C100.886 41.4 100.746 39.66 100.746 37.46V17.18H95.7056V15.98H100.746V8.05999C104.066 8.05999 106.946 7.41999 109.386 6.13999V15.98Z" fill="#62B93E"/>
<path d="M135.705 42.92C138.985 42.92 141.625 41.32 143.625 38.12L144.705 38.48C143.905 41.08 142.465 43.3 140.385 45.14C138.345 46.94 135.785 47.84 132.705 47.84C128.465 47.84 125.085 46.5 122.565 43.82C120.085 41.1 118.845 37.1 118.845 31.82C118.845 26.42 120.185 22.3 122.865 19.46C125.545 16.58 129.105 15.14 133.545 15.14C141.065 15.14 144.825 19.58 144.825 28.46H127.965C127.925 29.06 127.905 30 127.905 31.28C127.905 33.92 128.265 36.12 128.985 37.88C129.745 39.64 130.705 40.92 131.865 41.72C133.065 42.52 134.345 42.92 135.705 42.92ZM133.185 16.4C131.745 16.4 130.545 17.3 129.585 19.1C128.665 20.86 128.085 23.6 127.845 27.32H137.265C137.345 24.16 137.025 21.56 136.305 19.52C135.625 17.44 134.585 16.4 133.185 16.4Z" fill="#62B93E"/>
<path d="M169.615 24.68C174.815 25.08 178.635 26.28 181.075 28.28C183.515 30.28 184.735 32.64 184.735 35.36C184.735 39.08 183.275 41.96 180.355 44C177.435 46 173.375 47 168.175 47C167.015 47 166.035 46.98 165.235 46.94C162.595 46.86 160.015 46.82 157.495 46.82C153.375 46.82 150.295 46.88 148.255 47V45.8C149.575 45.72 150.535 45.56 151.135 45.32C151.775 45.08 152.195 44.62 152.395 43.94C152.635 43.26 152.755 42.16 152.755 40.64V10.88C152.755 9.35999 152.635 8.25999 152.395 7.57999C152.195 6.89999 151.775 6.43999 151.135 6.19999C150.535 5.95999 149.575 5.79999 148.255 5.71999V4.51999C150.295 4.63999 153.335 4.69999 157.375 4.69999L164.035 4.63999C164.835 4.59999 165.755 4.57999 166.795 4.57999C171.595 4.57999 175.255 5.43999 177.775 7.15999C180.335 8.87999 181.615 11.16 181.615 14C181.615 16.32 180.595 18.48 178.555 20.48C176.555 22.48 173.575 23.84 169.615 24.56V24.68ZM166.015 5.71999C164.935 5.71999 164.135 5.85999 163.615 6.13999C163.135 6.41999 162.795 6.91999 162.595 7.63999C162.395 8.35999 162.295 9.43999 162.295 10.88V24.44H164.875C167.475 24.44 169.295 23.56 170.335 21.8C171.375 20 171.895 17.62 171.895 14.66C171.895 11.66 171.415 9.41999 170.455 7.93999C169.535 6.45999 168.055 5.71999 166.015 5.71999ZM166.435 45.62C171.995 45.62 174.775 42.12 174.775 35.12C174.775 31.96 173.975 29.56 172.375 27.92C170.775 26.28 168.255 25.46 164.815 25.46H162.295V40.64C162.295 42.08 162.395 43.14 162.595 43.82C162.795 44.5 163.175 44.98 163.735 45.26C164.335 45.5 165.235 45.62 166.435 45.62Z" fill="#62B93E"/>
<path d="M217.847 40.46C217.847 42.3 218.127 43.64 218.687 44.48C219.287 45.32 220.287 45.74 221.687 45.74V47C220.447 46.88 219.207 46.82 217.967 46.82C214.487 46.82 211.567 47.1 209.207 47.66V42.26C207.367 45.98 204.147 47.84 199.547 47.84C196.547 47.84 194.367 47.06 193.007 45.5C192.367 44.74 191.887 43.76 191.567 42.56C191.287 41.32 191.147 39.7 191.147 37.7V22.52C191.147 20.68 190.847 19.34 190.247 18.5C189.687 17.66 188.707 17.24 187.307 17.24V15.98C188.547 16.1 189.787 16.16 191.027 16.16C194.507 16.16 197.427 15.88 199.787 15.32V40.16C199.787 41.84 200.027 43.1 200.507 43.94C201.027 44.78 201.987 45.2 203.387 45.2C204.987 45.2 206.347 44.54 207.467 43.22C208.627 41.86 209.207 40.2 209.207 38.24V22.52C209.207 20.68 208.907 19.34 208.307 18.5C207.747 17.66 206.767 17.24 205.367 17.24V15.98C206.647 16.1 207.887 16.16 209.087 16.16C212.567 16.16 215.487 15.88 217.847 15.32V40.46Z" fill="#62B93E"/>
<path d="M253.874 40.4C253.874 42.24 254.154 43.58 254.714 44.42C255.274 45.26 256.274 45.68 257.714 45.68V46.94C256.474 46.82 255.234 46.76 253.994 46.76C250.434 46.76 247.514 47.04 245.234 47.6V42.44C243.874 46.04 241.274 47.84 237.434 47.84C233.674 47.84 230.674 46.48 228.434 43.76C226.234 41 225.154 36.86 225.194 31.34C225.194 27.82 225.754 24.86 226.874 22.46C228.034 20.02 229.614 18.2 231.614 17C233.654 15.76 235.974 15.14 238.574 15.14C241.494 15.14 243.714 15.9 245.234 17.42V7.21999C245.234 5.37999 244.934 4.03999 244.334 3.19999C243.774 2.35999 242.794 1.93999 241.394 1.93999V0.679991C242.674 0.799989 243.914 0.859989 245.114 0.859989C248.594 0.859989 251.514 0.579989 253.874 0.019989V40.4ZM239.894 45.26C241.214 45.26 242.374 44.78 243.374 43.82C244.414 42.86 245.034 41.56 245.234 39.92V18.92C244.234 17.56 242.774 16.88 240.854 16.88C238.734 16.88 237.094 18.1 235.934 20.54C234.774 22.98 234.214 26.62 234.254 31.46C234.214 36.34 234.674 39.86 235.634 42.02C236.634 44.18 238.054 45.26 239.894 45.26Z" fill="#62B93E"/>
<path d="M272.093 15.14C273.613 15.14 275.013 15.34 276.293 15.74C277.573 16.1 278.553 16.52 279.233 17C279.633 17.28 279.993 17.42 280.313 17.42C280.673 17.42 280.973 17.24 281.213 16.88C281.493 16.48 281.673 15.92 281.753 15.2H283.013C282.853 17.24 282.773 20.76 282.773 25.76H281.513C281.153 23.12 280.353 20.92 279.113 19.16C277.913 17.36 276.153 16.46 273.833 16.46C272.633 16.46 271.633 16.8 270.833 17.48C270.073 18.16 269.693 19.1 269.693 20.3C269.693 21.66 270.153 22.84 271.073 23.84C271.993 24.8 273.433 25.98 275.393 27.38L277.133 28.64C279.573 30.48 281.373 32.12 282.533 33.56C283.693 35 284.273 36.8 284.273 38.96C284.273 40.72 283.753 42.28 282.713 43.64C281.713 45 280.353 46.04 278.633 46.76C276.913 47.48 275.013 47.84 272.933 47.84C270.733 47.84 268.853 47.42 267.293 46.58C266.013 45.94 265.093 45.52 264.533 45.32C264.133 45.2 263.773 45.34 263.453 45.74C263.173 46.1 262.953 46.66 262.793 47.42H261.533C261.693 45.14 261.773 41.14 261.773 35.42H263.033C263.833 42.78 266.533 46.46 271.133 46.46C272.293 46.46 273.273 46.12 274.073 45.44C274.913 44.72 275.333 43.64 275.333 42.2C275.333 41.08 275.073 40.08 274.553 39.2C274.073 38.32 273.453 37.54 272.693 36.86C271.933 36.18 270.793 35.24 269.273 34.04C267.473 32.6 266.093 31.44 265.133 30.56C264.213 29.68 263.413 28.64 262.733 27.44C262.093 26.24 261.773 24.9 261.773 23.42C261.773 20.86 262.773 18.84 264.773 17.36C266.773 15.88 269.213 15.14 272.093 15.14Z" fill="#62B93E"/>
</svg>
